# xmcd
#
# Track frame offsets:
#	150
#	3957
#	14896
#	25966
#	38645
#	57994
#	59545
#	70113
#	80144
#	96085
#
# Disc length: 1450 seconds
#
# Revision: 0
# Processed by: cddbd v1.4PL0 Copyright (c) Steve Scherf et al.
# Submitted via: EZCDDA 4.3.3.2
#
DISCID=8205a80a
DTITLE=Dixie Chicks - Ultra Rare Trax Disc 3
DYEAR=1900
DGENRE=
TTITLE0=Introduction
TTITLE1=Gonna Stop
TTITLE2=Roly Poly
TTITLE3=Love Me Like A Man
TTITLE4=Country Roads Take Me Home
TTITLE5=Interview
TTITLE6=Far Far Cry From Goodbye
TTITLE7=Bring It On Home
TTITLE8=Girl, I Could Fall For A Boy Like That
TTITLE9=Rocka Bye Boogie
EXTD=
EXTT0=
EXTT1=
EXTT2=
EXTT3=
EXTT4=
EXTT5=
EXTT6=
EXTT7=
EXTT8=
EXTT9=
PLAYORDER=
